<?xml version="1.0" ?><svg fill="white" width="60px" height="60px" data-name="Layer 1" id="Layer_1" viewBox="0 0 64 64" xmlns="http://www.w3.org/2000/svg"><path d="M9,19v30c0,.55,.45,1,1,1H26.59l1.71,1.71c.19,.19,.44,.29,.71,.29h6c.27,0,.52-.11,.71-.29l1.71-1.71h16.59c.55,0,1-.45,1-1V19c0-.55-.45-1-1-1h-3v-2c0-.43-.28-.81-.68-.95l-5.32-1.77v-.28c0-.55-.45-1-1-1-5.4,0-10.04,3.31-12,8-1.96-4.69-6.6-8-12-8-.55,0-1,.45-1,1v.28l-5.32,1.77c-.41,.14-.68,.52-.68,.95v2h-3c-.55,0-1,.45-1,1Zm41.62,24.79c.24-.19,.38-.48,.38-.79V20h2v28h-16c-.27,0-.52,.11-.71,.29l-1.71,1.71h-.82c5.63-8.43,15.55-6.14,15.99-6.03,.3,.07,.61,0,.86-.19Zm-5.62-4.79V15.39l4,1.33v25.1c-2.83-.37-9.91-.62-15.09,4.8,1.7-3.89,5.58-6.62,10.09-6.62,.55,0,1-.45,1-1Zm-12-14c0-5.73,4.4-10.45,10-10.96v23.99c-4.21,.32-7.86,2.66-10,6.05V25Zm-12-10.96c5.6,.51,10,5.23,10,10.96v19.09c-2.14-3.39-5.79-5.73-10-6.05V14.04Zm-6,2.68l4-1.33v23.61c0,.55,.45,1,1,1,4.51,0,8.39,2.73,10.09,6.62-5.18-5.42-12.26-5.17-15.09-4.8V16.72Zm-4,3.28h2v23c0,.31,.14,.6,.38,.79,.24,.19,.56,.26,.86,.18,.11-.03,10.31-2.42,15.99,6.03h-.82l-1.71-1.71c-.19-.19-.44-.29-.71-.29H11V20Z"/></svg>