<?xml version="1.0" ?><!DOCTYPE svg  PUBLIC '-//W3C//DTD SVG 1.1//EN'
        'http://www.w3.org/Graphics/SVG/1.1/DTD/svg11.dtd'>
<svg fill="white" width="40px" height="40px" style="fill-rule:evenodd;clip-rule:evenodd;stroke-linejoin:round;stroke-miterlimit:2;"
     version="1.1" viewBox="0 0 32 32" xml:space="preserve" xmlns="http://www.w3.org/2000/svg"
      ><path d="M6.928,29.996l0.007,0.001l0.006,0c0.022,0.002 0.045,0.003 0.068,0.003l0.001,0c0.266,0 0.52,-0.106 0.708,-0.293c-0,-0 5.041,-5.049 7.573,-7.583c0.187,-0.188 0.442,-0.294 0.707,-0.294c0.266,0 0.52,0.106 0.708,0.294l7.566,7.576c0.192,0.192 0.453,0.3 0.724,0.3l0.001,0c0.552,0 1,-0.448 1,-1l-0,-24c-0,-1.657 -1.343,-3 -3,-3l-13.997,0c-1.657,0 -3,1.343 -3,3l0,23.99c-0,0.53 0.408,0.965 0.928,1.006Zm17.069,-3.402l-5.876,-5.884c-0.563,-0.563 -1.326,-0.88 -2.123,-0.88c-0.796,0 -1.56,0.317 -2.122,0.88l-5.876,5.884l-0,-21.594c0,-0.552 0.448,-1 1,-1c0,-0 13.997,0 13.997,0c0.552,0 1,0.448 1,1l-0,21.594Z"/>
    <path d="M11,8l10,0c0.552,0 1,-0.448 1,-1c0,-0.552 -0.448,-1 -1,-1l-10,0c-0.552,0 -1,0.448 -1,1c0,0.552 0.448,1 1,1Z"/>
    <path d="M11,11.958l10,0c0.552,0 1,-0.448 1,-1c-0,-0.552 -0.448,-1 -1,-1l-10,0c-0.552,0 -1,0.448 -1,1c-0,0.552 0.448,1 1,1Z"/></svg>