<?xml version="1.0" ?><!DOCTYPE svg  PUBLIC '-//W3C//DTD SVG 1.1//EN'  'http://www.w3.org/Graphics/SVG/1.1/DTD/svg11.dtd'><svg fill="white" height="100%" style="fill-rule:evenodd;clip-rule:evenodd;stroke-linejoin:round;stroke-miterlimit:2;" version="1.1" viewBox="0 0 32 32" width="100%" xml:space="preserve" xmlns="http://www.w3.org/2000/svg" xmlns:serif="http://www.serif.com/" xmlnsxlink="http://www.w3.org/1999/xlink"><path d="M30.012,9c0,-0.796 -0.316,-1.559 -0.878,-2.121c-0.563,-0.563 -1.326,-0.879 -2.122,-0.879l-22.012,0c-0.796,0 -1.559,0.316 -2.121,0.879c-0.563,0.562 -0.879,1.325 -0.879,2.121c-0,3.463 -0,10.537 -0,14c-0,0.796 0.316,1.559 0.879,2.121c0.562,0.563 1.325,0.879 2.121,0.879l22.012,-0c0.796,-0 1.559,-0.316 2.122,-0.879c0.562,-0.562 0.878,-1.325 0.878,-2.121l0,-14Zm-17.235,8.379l-7.243,6.621l20.917,-0l-7.216,-6.621l-2.551,2.353c-0.383,0.353 -0.973,0.353 -1.356,-0l-2.551,-2.353Zm7.933,-1.36l7.302,6.7l0,-13.436l-7.302,6.736Zm-16.71,6.674l7.302,-6.675l-7.302,-6.735l-0,13.41Zm22.453,-14.693l-20.894,0l10.447,9.636l10.447,-9.636Z"/></svg>