<?xml version="1.0" ?><!DOCTYPE svg  PUBLIC '-//W3C//DTD SVG 1.1//EN'  'http://www.w3.org/Graphics/SVG/1.1/DTD/svg11.dtd'><svg height="100%" fill="white" style="fill-rule:evenodd;clip-rule:evenodd;stroke-linejoin:round;stroke-miterlimit:2;" version="1.1" viewBox="0 0 32 32" width="100%" xml:space="preserve" xmlns="http://www.w3.org/2000/svg" xmlns:serif="http://www.serif.com/" xmlnsxlink="http://www.w3.org/1999/xlink"><path d="M24.588,5.984l-7.308,7.309c-0.391,0.39 -0.391,1.024 -0,1.414c0.39,0.39 1.024,0.39 1.414,0l7.297,-7.297l0,2.58c0,0.552 0.448,1 1,1c0.552,0 1,-0.448 1,-1l0,-3.007c0,-0.798 -0.317,-1.563 -0.883,-2.126c-0.565,-0.563 -1.332,-0.878 -2.129,-0.874c-1.391,0.006 -2.992,0.012 -2.992,0.012c-0.552,0.003 -0.998,0.453 -0.996,1.005c0.003,0.551 0.453,0.998 1.005,0.995l2.592,-0.011Z"/><path d="M12.849,13.615l0.92,-0.919c0.562,-0.563 0.878,-1.326 0.878,-2.122c0,-0.795 -0.316,-1.559 -0.878,-2.121c-0.823,-0.822 -1.859,-1.858 -2.699,-2.699c-0.641,-0.641 -1.539,-0.958 -2.441,-0.862c-0.902,0.096 -1.712,0.596 -2.203,1.358c-3.307,5.129 -1.447,11.118 3.392,15.957c4.831,4.831 10.92,6.795 16.047,3.497c0.759,-0.481 1.258,-1.282 1.356,-2.175c0.098,-0.887 -0.209,-1.77 -0.835,-2.404c-0.823,-0.877 -1.868,-1.923 -2.697,-2.752c-0.563,-0.563 -1.326,-0.879 -2.122,-0.879c-0.795,0 -1.558,0.316 -2.121,0.879l-0.92,0.92c-0.39,0.39 -1.024,0.39 -1.414,-0c-1.237,-1.238 -3.026,-3.026 -4.263,-4.263c-0.391,-0.391 -0.391,-1.024 -0,-1.415Zm-0.495,-2.334l-0.919,0.92c-1.172,1.172 -1.172,3.071 -0,4.243c1.237,1.237 3.025,3.026 4.263,4.263c1.171,1.172 3.071,1.172 4.242,0l0.92,-0.92c0.188,-0.187 0.442,-0.293 0.707,-0.293c0.266,0 0.52,0.106 0.708,0.293c-0,0 -0,0 -0,0c0.818,0.818 1.85,1.85 2.66,2.714c0.007,0.008 0.015,0.016 0.022,0.024c0.207,0.206 0.308,0.495 0.276,0.785c-0.032,0.29 -0.194,0.55 -0.44,0.706c-0.002,0.001 -0.004,0.002 -0.005,0.004c-4.35,2.8 -9.457,0.872 -13.556,-3.227c-4.098,-4.099 -5.926,-9.115 -3.125,-13.459c0,-0 0,-0.001 0,-0.001c0.164,-0.254 0.434,-0.42 0.735,-0.452c0.3,-0.033 0.6,0.073 0.813,0.287l2.699,2.699c0.188,0.188 0.293,0.442 0.293,0.707c0,0.265 -0.105,0.52 -0.293,0.707Z"/></svg>